<mxfile host="app.diagrams.net" modified="2023-07-09T14:29:57.069Z" agent="Mozilla/5.0 (Windows NT 10.0; Win64; x64) AppleWebKit/537.36 (KHTML, like Gecko) Chrome/114.0.0.0 Safari/537.36 Edg/114.0.1823.67" version="21.6.1" etag="fQ6qQtMCtoCBsC_vI4Ee" type="github">
  <diagram name="Page-1" id="zE_j8xGJ8U2kvHJI0Ncq">
    <mxGraphModel>
      <root>
        <mxCell id="0" />
        <mxCell id="1" parent="0" />
      </root>
    </mxGraphModel>
  </diagram>
</mxfile>
